<svg width="672" height="134" viewBox="0 0 672 134" fill="none" xmlns="http://www.w3.org/2000/svg">
<path d="M653.933 103C650.515 103 647.449 102.453 644.737 101.36C642.024 100.239 639.718 98.6952 637.819 96.7273C635.947 94.7594 634.509 92.4771 633.506 89.8806C632.502 87.2567 632 84.4688 632 81.5169V79.877C632 76.5152 632.475 73.4403 633.424 70.6524C634.374 67.8645 635.73 65.4456 637.493 63.3957C639.284 61.3458 641.454 59.7742 644.004 58.6809C646.554 57.5603 649.43 57 652.631 57C655.75 57 658.517 57.5193 660.932 58.5579C663.346 59.5966 665.367 61.0725 666.995 62.9857C668.65 64.899 669.898 67.1949 670.739 69.8734C671.58 72.5247 672 75.4765 672 78.7291V83.6488H637.005V75.7772H660.484V74.8752C660.484 73.2353 660.186 71.773 659.589 70.4884C659.019 69.1765 658.151 68.1378 656.985 67.3725C655.818 66.6072 654.326 66.2246 652.509 66.2246C650.962 66.2246 649.633 66.5663 648.521 67.2496C647.409 67.9329 646.5 68.8895 645.795 70.1194C645.116 71.3494 644.601 72.798 644.248 74.4652C643.923 76.1052 643.76 77.9091 643.76 79.877V81.5169C643.76 83.2935 644.004 84.9335 644.492 86.4367C645.008 87.94 645.727 89.2383 646.649 90.3316C647.599 91.4248 648.738 92.2721 650.067 92.8734C651.424 93.4747 652.956 93.7754 654.665 93.7754C656.781 93.7754 658.748 93.3654 660.566 92.5455C662.41 91.6982 663.997 90.4272 665.327 88.7326L671.023 94.9644C670.101 96.3036 668.84 97.5882 667.239 98.8182C665.666 100.048 663.767 101.059 661.542 101.852C659.318 102.617 656.781 103 653.933 103Z" fill="black"/>
<path d="M564.918 66.9637V102H553V57.8167H564.175L564.918 66.9637ZM563.268 78.3566H559.969C559.969 75.2804 560.34 72.4492 561.082 69.863C561.852 67.2495 562.966 64.99 564.423 63.0844C565.907 61.1515 567.735 59.6543 569.907 58.5926C572.079 57.5309 574.594 57 577.454 57C579.433 57 581.247 57.2995 582.897 57.8984C584.546 58.4701 585.962 59.382 587.144 60.6343C588.354 61.8593 589.289 63.4655 589.948 65.4528C590.608 67.4129 590.938 69.7677 590.938 72.5172V102H579.062V73.824C579.062 71.8094 578.787 70.2577 578.237 69.1688C577.687 68.0799 576.904 67.3176 575.887 66.882C574.897 66.4465 573.701 66.2287 572.299 66.2287C570.759 66.2287 569.412 66.5417 568.258 67.1679C567.131 67.794 566.196 68.6652 565.454 69.7813C564.711 70.8702 564.162 72.1497 563.804 73.6198C563.447 75.0898 563.268 76.6688 563.268 78.3566ZM589.825 77.0091L585.577 77.5399C585.577 74.6543 585.935 71.9728 586.649 69.4955C587.392 67.0181 588.478 64.8403 589.907 62.9619C591.364 61.0835 593.165 59.627 595.309 58.5926C597.454 57.5309 599.928 57 602.732 57C604.876 57 606.828 57.3131 608.588 57.9392C610.347 58.5381 611.845 59.5045 613.082 60.8385C614.347 62.1452 615.309 63.8603 615.969 65.9837C616.656 68.1071 617 70.7069 617 73.7831V102H605.082V73.7831C605.082 71.7414 604.808 70.1897 604.258 69.1279C603.735 68.039 602.966 67.2904 601.948 66.882C600.959 66.4465 599.777 66.2287 598.402 66.2287C596.973 66.2287 595.722 66.5145 594.649 67.0862C593.577 67.6307 592.684 68.3929 591.969 69.373C591.254 70.353 590.718 71.4964 590.361 72.8031C590.003 74.0826 589.825 75.4846 589.825 77.0091Z" fill="black"/>
<path d="M521 96C521 94.2933 521.63 92.8667 522.89 91.72C524.178 90.5733 525.881 90 528 90C530.119 90 531.808 90.5733 533.067 91.72C534.356 92.8667 535 94.2933 535 96C535 97.7067 534.356 99.1333 533.067 100.28C531.808 101.427 530.119 102 528 102C525.881 102 524.178 101.427 522.89 100.28C521.63 99.1333 521 97.7067 521 96Z" fill="black"/>
<path d="M493.287 83.5312C493.287 87.8125 492.287 91.4219 490.287 94.3594C488.287 97.2656 485.537 99.4688 482.037 100.969C478.568 102.438 474.631 103.172 470.224 103.172C465.818 103.172 461.865 102.438 458.365 100.969C454.865 99.4688 452.099 97.2656 450.068 94.3594C448.037 91.4219 447.021 87.8125 447.021 83.5312C447.021 80.6562 447.599 78.0625 448.756 75.75C449.912 73.4062 451.521 71.4062 453.584 69.75C455.677 68.0625 458.131 66.7812 460.943 65.9062C463.756 65 466.818 64.5469 470.131 64.5469C474.568 64.5469 478.537 65.3281 482.037 66.8906C485.537 68.4531 488.287 70.6562 490.287 73.5C492.287 76.3438 493.287 79.6875 493.287 83.5312ZM479.693 82.6406C479.693 80.5469 479.287 78.75 478.474 77.25C477.693 75.7188 476.584 74.5469 475.146 73.7344C473.709 72.9219 472.037 72.5156 470.131 72.5156C468.224 72.5156 466.552 72.9219 465.115 73.7344C463.677 74.5469 462.552 75.7188 461.74 77.25C460.959 78.75 460.568 80.5469 460.568 82.6406C460.568 84.7031 460.959 86.4844 461.74 87.9844C462.552 89.4844 463.677 90.6406 465.115 91.4531C466.584 92.2344 468.287 92.625 470.224 92.625C472.162 92.625 473.834 92.2344 475.24 91.4531C476.677 90.6406 477.771 89.4844 478.521 87.9844C479.302 86.4844 479.693 84.7031 479.693 82.6406ZM491.834 52.0781C491.834 55.5469 490.912 58.625 489.068 61.3125C487.224 63.9688 484.662 66.0469 481.381 67.5469C478.131 69.0469 474.412 69.7969 470.224 69.7969C466.006 69.7969 462.256 69.0469 458.974 67.5469C455.693 66.0469 453.131 63.9688 451.287 61.3125C449.443 58.625 448.521 55.5469 448.521 52.0781C448.521 47.9531 449.443 44.4844 451.287 41.6719C453.162 38.8281 455.724 36.6719 458.974 35.2031C462.256 33.7344 465.974 33 470.131 33C474.349 33 478.084 33.7344 481.334 35.2031C484.615 36.6719 487.177 38.8281 489.021 41.6719C490.896 44.4844 491.834 47.9531 491.834 52.0781ZM478.334 52.6875C478.334 50.8438 478.006 49.25 477.349 47.9062C476.693 46.5312 475.756 45.4688 474.537 44.7188C473.349 43.9688 471.881 43.5938 470.131 43.5938C468.443 43.5938 466.99 43.9531 465.771 44.6719C464.584 45.3906 463.662 46.4375 463.006 47.8125C462.381 49.1562 462.068 50.7812 462.068 52.6875C462.068 54.5312 462.381 56.1562 463.006 57.5625C463.662 58.9375 464.599 60.0156 465.818 60.7969C467.037 61.5781 468.506 61.9688 470.224 61.9688C471.943 61.9688 473.396 61.5781 474.584 60.7969C475.802 60.0156 476.724 58.9375 477.349 57.5625C478.006 56.1562 478.334 54.5312 478.334 52.6875Z" fill="black"/>
<path d="M360.601 62.25H367.819C370.132 62.25 372.038 61.8594 373.538 61.0781C375.038 60.2656 376.147 59.1406 376.866 57.7031C377.616 56.2344 377.991 54.5312 377.991 52.5938C377.991 50.8438 377.647 49.2969 376.96 47.9531C376.304 46.5781 375.288 45.5156 373.913 44.7656C372.538 43.9844 370.804 43.5938 368.71 43.5938C367.054 43.5938 365.522 43.9219 364.116 44.5781C362.71 45.2344 361.585 46.1562 360.741 47.3438C359.897 48.5312 359.476 49.9688 359.476 51.6562H345.929C345.929 47.9062 346.929 44.6406 348.929 41.8594C350.96 39.0781 353.679 36.9062 357.085 35.3438C360.491 33.7812 364.241 33 368.335 33C372.96 33 377.007 33.75 380.476 35.25C383.944 36.7188 386.647 38.8906 388.585 41.7656C390.522 44.6406 391.491 48.2031 391.491 52.4531C391.491 54.6094 390.991 56.7031 389.991 58.7344C388.991 60.7344 387.554 62.5469 385.679 64.1719C383.835 65.7656 381.585 67.0469 378.929 68.0156C376.272 68.9531 373.288 69.4219 369.976 69.4219H360.601V62.25ZM360.601 72.5156V65.5312H369.976C373.694 65.5312 376.96 65.9531 379.772 66.7969C382.585 67.6406 384.944 68.8594 386.851 70.4531C388.757 72.0156 390.194 73.875 391.163 76.0312C392.132 78.1562 392.616 80.5156 392.616 83.1094C392.616 86.2969 392.007 89.1406 390.788 91.6406C389.569 94.1094 387.851 96.2031 385.632 97.9219C383.444 99.6406 380.882 100.953 377.944 101.859C375.007 102.734 371.804 103.172 368.335 103.172C365.46 103.172 362.632 102.781 359.851 102C357.101 101.188 354.601 99.9844 352.351 98.3906C350.132 96.7656 348.351 94.7344 347.007 92.2969C345.694 89.8281 345.038 86.9062 345.038 83.5312H358.585C358.585 85.2812 359.022 86.8438 359.897 88.2188C360.772 89.5938 361.976 90.6719 363.507 91.4531C365.069 92.2344 366.804 92.625 368.71 92.625C370.866 92.625 372.71 92.2344 374.241 91.4531C375.804 90.6406 376.991 89.5156 377.804 88.0781C378.647 86.6094 379.069 84.9062 379.069 82.9688C379.069 80.4688 378.616 78.4688 377.71 76.9688C376.804 75.4375 375.507 74.3125 373.819 73.5938C372.132 72.875 370.132 72.5156 367.819 72.5156H360.601Z" fill="black"/>
<path d="M294.395 36V102H282V36H294.395ZM330.422 36L306.583 68.592L292.825 84.8201L290.594 71.9464L299.89 57.9849L315.218 36H330.422ZM316.333 102L298.609 71.4931L307.781 63.0618L331 102H316.333Z" fill="black"/>
<path d="M167.395 36V102H155V36H167.395ZM203.422 36L179.583 68.592L165.825 84.8201L163.594 71.9464L172.89 57.9849L188.218 36H203.422ZM189.333 102L171.609 71.4931L180.781 63.0618L204 102H189.333Z" fill="black"/>
<path d="M249.668 84.7727C249.668 83.5909 249.503 82.5303 249.174 81.5909C248.873 80.6212 248.297 79.7424 247.448 78.9545C246.598 78.1364 245.406 77.3333 243.871 76.5455C242.337 75.7576 240.35 74.9394 237.911 74.0909C235.197 73.1212 232.621 72.0303 230.182 70.8182C227.771 69.6061 225.633 68.197 223.769 66.5909C221.933 64.9545 220.481 63.0606 219.412 60.9091C218.371 58.7576 217.85 56.2576 217.85 53.4091C217.85 50.6515 218.398 48.1515 219.494 45.9091C220.59 43.6364 222.125 41.697 224.098 40.0909C226.071 38.4545 228.401 37.197 231.087 36.3182C233.8 35.4394 236.773 35 240.007 35C244.419 35 248.27 35.8788 251.559 37.6364C254.847 39.3939 257.396 41.803 259.205 44.8636C261.041 47.9242 261.959 51.4242 261.959 55.3636H249.709C249.709 53.4242 249.339 51.7273 248.599 50.2727C247.886 48.7879 246.79 47.6212 245.31 46.7727C243.858 45.9242 242.021 45.5 239.802 45.5C237.664 45.5 235.883 45.8636 234.458 46.5909C233.032 47.2879 231.964 48.2424 231.251 49.4545C230.539 50.6364 230.182 51.9697 230.182 53.4545C230.182 54.5758 230.429 55.5909 230.922 56.5C231.443 57.4091 232.21 58.2576 233.224 59.0455C234.238 59.8333 235.485 60.5758 236.965 61.2727C238.445 61.9697 240.158 62.6515 242.104 63.3182C245.365 64.4091 248.229 65.6364 250.695 67C253.189 68.3636 255.272 69.8939 256.944 71.5909C258.615 73.2879 259.876 75.2121 260.726 77.3636C261.575 79.5152 262 81.9545 262 84.6818C262 87.5606 261.493 90.1364 260.479 92.4091C259.465 94.6818 257.999 96.6061 256.08 98.1818C254.162 99.7576 251.874 100.955 249.215 101.773C246.557 102.591 243.584 103 240.295 103C237.335 103 234.416 102.576 231.539 101.727C228.661 100.848 226.044 99.5303 223.687 97.7727C221.358 96.0152 219.494 93.7727 218.097 91.0455C216.699 88.3182 216 85.0909 216 81.3636H228.374C228.374 83.4242 228.661 85.1667 229.237 86.5909C229.812 88.0152 230.621 89.1667 231.662 90.0455C232.731 90.9242 233.992 91.5606 235.444 91.9545C236.924 92.3485 238.541 92.5455 240.295 92.5455C242.433 92.5455 244.186 92.2121 245.557 91.5455C246.954 90.8788 247.982 89.9545 248.64 88.7727C249.325 87.5909 249.668 86.2576 249.668 84.7727Z" fill="black"/>
<path d="M50.1057 16.1134L65.0458 11.9302L87.1571 14.9182L95.0454 34.8321L90.2269 50.3863L50.1057 28.663L50.1057 16.1134Z" fill="#837445"/>
<path d="M39.9465 21.6218L69.1853 21.6218L91.3361 46.4658L85.9017 67.5736L22.9904 34.8333L39.9465 21.6218Z" fill="#E3D8A1"/>
<path fill-rule="evenodd" clip-rule="evenodd" d="M10.6761 58.6217C7.03654 66.4501 4.16172 75.1242 2.29752 83.9532C5.73927 106.096 5.65864 110.215 7.61631 112.777C9.32495 115.012 12.5863 116.061 21.0974 126.871C22.1955 126.871 23.2571 126.873 24.2842 126.875C49.3832 126.925 53.9171 126.934 68.3658 95.1978C68.4554 94.7735 68.5439 94.3503 68.6314 93.9283L65.6802 86.0619L48.4917 64.2731L17.8747 57.5489L10.6761 58.6217Z" fill="#EBCFC4"/>
<path d="M44.7273 62.1288L57.7435 64.5651L55.3619 85.5272L36.3609 83.3684L44.7273 62.1288Z" fill="#CC9A87"/>
<path d="M35.2118 25.7388L65.8035 31.4537L90.3303 60.2856L86.0713 77.4896L71.4571 97.834L65.8035 77.4896L46.0319 64.6205L25.6041 59.1408L13.6521 58.5432L6.48073 64.6204L9.46876 43.0055L22.0184 31.4537L35.2118 25.7388Z" fill="#48579D"/>
<path fill-rule="evenodd" clip-rule="evenodd" d="M33.9704 126.072C51.4957 125.578 56.5677 121.564 69.1064 91.1402C69.196 90.6715 69.2846 90.204 69.3721 89.7378L66.4209 81.0478L53.3373 62.7263L33.9704 126.072Z" fill="#CC9A87"/>
<ellipse cx="62" cy="96.8223" rx="15" ry="11.5" fill="#CC9A87"/>
<path fill-rule="evenodd" clip-rule="evenodd" d="M49.5081 67.3359L65.2871 77.4695L71.017 97.8139L85.8285 77.4695L90.145 60.2654L70.627 37.6271L49.5081 67.3359Z" fill="#121F5B"/>
<ellipse cx="69" cy="113.322" rx="3" ry="4" fill="white"/>
<ellipse cx="35.8404" cy="84.9467" rx="2.98801" ry="4.18322" transform="rotate(91.5074 35.8404 84.9467)" fill="black"/>
<ellipse cx="35.8404" cy="84.9467" rx="2.98801" ry="4.18322" transform="rotate(91.5074 35.8404 84.9467)" fill="black"/>
<path fill-rule="evenodd" clip-rule="evenodd" d="M13.2047 79.0443C12.3822 78.2631 10.5119 77.6804 8.32422 77.6156C6.10062 77.5497 4.17949 78.0374 3.34237 78.7894C3.04813 78.5099 2.88798 78.2051 2.89535 77.8894C2.92335 76.6914 5.35393 75.7915 8.32422 75.8796C11.2945 75.9676 13.6797 77.0102 13.6517 78.2082C13.6447 78.5094 13.4858 78.7917 13.2047 79.0443Z" fill="black"/>
<path fill-rule="evenodd" clip-rule="evenodd" d="M13.2047 79.0443C12.3822 78.2631 10.5119 77.6804 8.32422 77.6156C6.10062 77.5497 4.17949 78.0374 3.34237 78.7894C3.04813 78.5099 2.88798 78.2051 2.89535 77.8894C2.92335 76.6914 5.35393 75.7915 8.32422 75.8796C11.2945 75.9676 13.6797 77.0102 13.6517 78.2082C13.6447 78.5094 13.4858 78.7917 13.2047 79.0443Z" fill="black"/>
<path d="M37.7554 79.9805L22.0184 81.8489L22.0978 77.2264L25.604 74.0808L37.7554 79.9805Z" fill="#CC9A87"/>
<path fill-rule="evenodd" clip-rule="evenodd" d="M41.2411 84.6755C40.1574 83.6415 37.4428 82.4634 34.1383 81.6915C30.7795 80.907 27.7633 80.7646 26.3358 81.2328C25.9482 80.8629 25.7692 80.5114 25.8466 80.2035C26.1404 79.035 30.0157 78.9372 34.5024 79.9852C38.9891 81.0331 42.3882 82.83 42.0944 83.9985C42.0206 84.2922 41.7204 84.5183 41.2411 84.6755Z" fill="black"/>
<path fill-rule="evenodd" clip-rule="evenodd" d="M41.2411 84.6755C40.1574 83.6415 37.4428 82.4634 34.1383 81.6915C30.7795 80.907 27.7633 80.7646 26.3358 81.2328C25.9482 80.8629 25.7692 80.5114 25.8466 80.2035C26.1404 79.035 30.0157 78.9372 34.5024 79.9852C38.9891 81.0331 42.3882 82.83 42.0944 83.9985C42.0206 84.2922 41.7204 84.5183 41.2411 84.6755Z" fill="black"/>
<ellipse cx="10.8983" cy="80.4822" rx="2.98801" ry="2.75366" transform="rotate(99.808 10.8983 80.4822)" fill="black"/>
<ellipse cx="10.8983" cy="80.4822" rx="2.98801" ry="2.75366" transform="rotate(99.808 10.8983 80.4822)" fill="black"/>
<path d="M84.169 39.8538L91.2315 39.8538L119.871 128.832L91.2315 128.832L84.169 39.8538Z" fill="#E3D8A1"/>
<path d="M22.7778 76.3223L24 102.322H16.0556L13 100.55L22.7778 76.3223Z" fill="#CC9A87"/>
<rect x="413" y="33" width="13" height="70" fill="black"/>
</svg>
