<svg width="120" height="134" viewBox="0 0 120 134" fill="none" xmlns="http://www.w3.org/2000/svg">
<path d="M50.1057 16.1134L65.0458 11.9302L87.1571 14.9182L95.0454 34.8321L90.2269 50.3863L50.1057 28.663L50.1057 16.1134Z" fill="#837445"/>
<path d="M39.9465 21.6218L69.1853 21.6218L91.3361 46.4657L85.9017 67.5736L22.9904 34.8333L39.9465 21.6218Z" fill="#E3D8A1"/>
<path fill-rule="evenodd" clip-rule="evenodd" d="M10.6761 58.6218C7.03654 66.4501 4.16172 75.1242 2.29752 83.9533C5.73927 106.096 5.65864 110.215 7.61631 112.777C9.32495 115.012 12.5863 116.061 21.0974 126.871C22.1955 126.871 23.2571 126.873 24.2842 126.875C49.3832 126.925 53.9171 126.934 68.3658 95.1979C68.4554 94.7735 68.5439 94.3503 68.6314 93.9283L65.6802 86.0619L48.4917 64.2731L17.8747 57.549L10.6761 58.6218Z" fill="#EBCFC4"/>
<path d="M44.7273 62.1288L57.7435 64.5651L55.3619 85.5272L36.3609 83.3684L44.7273 62.1288Z" fill="#CC9A87"/>
<path d="M35.2118 25.7388L65.8035 31.4537L90.3303 60.2856L86.0713 77.4897L71.4571 97.8341L65.8035 77.4897L46.0319 64.6205L25.6041 59.1408L13.6521 58.5432L6.48073 64.6205L9.46876 43.0055L22.0184 31.4537L35.2118 25.7388Z" fill="#48579D"/>
<path fill-rule="evenodd" clip-rule="evenodd" d="M33.9704 126.072C51.4957 125.578 56.5677 121.564 69.1064 91.1402C69.196 90.6714 69.2846 90.204 69.372 89.7378L66.4209 81.0478L53.3373 62.7263L33.9704 126.072Z" fill="#CC9A87"/>
<ellipse cx="62" cy="96.8223" rx="15" ry="11.5" fill="#CC9A87"/>
<path fill-rule="evenodd" clip-rule="evenodd" d="M49.5081 67.3358L65.2871 77.4694L71.017 97.8138L85.8285 77.4694L90.145 60.2653L70.627 37.6271L49.5081 67.3358Z" fill="#121F5B"/>
<ellipse cx="69" cy="113.322" rx="3" ry="4" fill="white"/>
<ellipse cx="35.8404" cy="84.9467" rx="2.98801" ry="4.18322" transform="rotate(91.5074 35.8404 84.9467)" fill="black"/>
<ellipse cx="35.8404" cy="84.9467" rx="2.98801" ry="4.18322" transform="rotate(91.5074 35.8404 84.9467)" fill="black"/>
<path fill-rule="evenodd" clip-rule="evenodd" d="M13.2047 79.0443C12.3822 78.2631 10.5119 77.6804 8.32422 77.6156C6.10062 77.5497 4.17949 78.0374 3.34237 78.7894C3.04813 78.5099 2.88798 78.2051 2.89535 77.8894C2.92335 76.6914 5.35393 75.7915 8.32422 75.8796C11.2945 75.9676 13.6797 77.0102 13.6517 78.2082C13.6447 78.5094 13.4858 78.7917 13.2047 79.0443Z" fill="black"/>
<path fill-rule="evenodd" clip-rule="evenodd" d="M13.2047 79.0443C12.3822 78.2631 10.5119 77.6804 8.32422 77.6156C6.10062 77.5497 4.17949 78.0374 3.34237 78.7894C3.04813 78.5099 2.88798 78.2051 2.89535 77.8894C2.92335 76.6914 5.35393 75.7915 8.32422 75.8796C11.2945 75.9676 13.6797 77.0102 13.6517 78.2082C13.6447 78.5094 13.4858 78.7917 13.2047 79.0443Z" fill="black"/>
<path d="M37.7554 79.9805L22.0184 81.849L22.0978 77.2264L25.604 74.0808L37.7554 79.9805Z" fill="#CC9A87"/>
<path fill-rule="evenodd" clip-rule="evenodd" d="M41.2411 84.6755C40.1574 83.6415 37.4428 82.4634 34.1383 81.6915C30.7795 80.907 27.7633 80.7646 26.3358 81.2328C25.9482 80.8629 25.7692 80.5114 25.8466 80.2035C26.1404 79.035 30.0157 78.9372 34.5024 79.9852C38.9891 81.0331 42.3882 82.83 42.0944 83.9985C42.0206 84.2922 41.7204 84.5183 41.2411 84.6755Z" fill="black"/>
<path fill-rule="evenodd" clip-rule="evenodd" d="M41.2411 84.6755C40.1574 83.6415 37.4428 82.4634 34.1383 81.6915C30.7795 80.907 27.7633 80.7646 26.3358 81.2328C25.9482 80.8629 25.7692 80.5114 25.8466 80.2035C26.1404 79.035 30.0157 78.9372 34.5024 79.9852C38.9891 81.0331 42.3882 82.83 42.0944 83.9985C42.0206 84.2922 41.7204 84.5183 41.2411 84.6755Z" fill="black"/>
<ellipse cx="10.8983" cy="80.4823" rx="2.98801" ry="2.75366" transform="rotate(99.808 10.8983 80.4823)" fill="black"/>
<ellipse cx="10.8983" cy="80.4823" rx="2.98801" ry="2.75366" transform="rotate(99.808 10.8983 80.4823)" fill="black"/>
<path d="M84.169 39.8538L91.2315 39.8538L119.871 128.832L91.2315 128.832L84.169 39.8538Z" fill="#E3D8A1"/>
<path d="M22.7778 76.3223L24 102.322H16.0556L13 100.55L22.7778 76.3223Z" fill="#CC9A87"/>
</svg>
