<svg xmlns="http://www.w3.org/2000/svg" viewBox="0 0 480.51 96.77"><defs><style>.cls-1{fill:#1f79b7;}.cls-2{fill:#fabd14;}</style></defs><title>アセット 1</title><g id="レイヤー_2" data-name="レイヤー 2"><g id="レイヤー_1-2" data-name="レイヤー 1"><path class="cls-1" d="M58.47,19.9a22.85,22.85,0,0,0-9.4-14.5C43.05,1.29,36.41,0,25.21,0H3A3,3,0,0,0,0,3V6.47A2.82,2.82,0,0,0,2.82,9.29H24.48c7.25,0,19.22,0,22.27,10.58H57.89l.58,0"/><path class="cls-2" d="M58.47,19.9l-.58,0H26.22a7,7,0,0,0-7,7V41.24h5.29c1.27,0,2.71,0,4.25-.06V33.94a4.53,4.53,0,0,1,4.53-4.53H57.89c.3,0,.59,0,.88,0a13.49,13.49,0,0,1-.88,27H51.5A14.63,14.63,0,0,0,36.86,71V85.12a2.1,2.1,0,0,1-2.11,2.11H30.84a2.1,2.1,0,0,1-2.11-2.11V50.44c-2.13.09-4,.09-5.49.09H21.58a9.9,9.9,0,0,0-2.39.3V88.94A7.84,7.84,0,0,0,27,96.77H38.57a7.84,7.84,0,0,0,7.83-7.83V76.43A10.49,10.49,0,0,1,56.89,65.94h1a23,23,0,0,0,.58-46"/><path class="cls-1" d="M57.89,29.41H47.12C45.2,39.17,36,40.88,28.73,41.18c-1.54.06-3,.06-4.25.06H17.6A17.61,17.61,0,0,0,0,58.84V81.53a3.55,3.55,0,0,0,3.55,3.55H8a3.55,3.55,0,0,0,3.55-3.55v-21a10,10,0,0,1,7.63-9.72,9.9,9.9,0,0,1,2.39-.3h1.66c1.48,0,3.36,0,5.49-.09,10.76-.48,27.78-3.4,30-21-.29,0-.58,0-.88,0"/><path class="cls-2" d="M425.59,19.41a3.19,3.19,0,0,0-2.93-1.92h-6a3.19,3.19,0,0,0-2.93,1.92L396.41,59.47a3.19,3.19,0,0,0,2.93,4.46h2.71A3.16,3.16,0,0,0,405,62l12.86-29.8a2,2,0,0,1,3.69,0L434.38,62a3.18,3.18,0,0,0,2.94,2H440A3.19,3.19,0,0,0,443,59.47Z"/><path class="cls-2" d="M478.78,18a3.29,3.29,0,0,0-1.79-.47h-1.65a3.54,3.54,0,0,0-3,1.62l-10.19,15.1a1.57,1.57,0,0,1-2.61,0c-3-4.44-10.08-15.11-10.08-15.11a3.54,3.54,0,0,0-3-1.62h-1.66A3.28,3.28,0,0,0,443,18,3.6,3.6,0,0,0,441.9,23l13.87,21.12a4.75,4.75,0,0,1,.77,2.58v14a3.2,3.2,0,0,0,3.2,3.2h2.34a3.2,3.2,0,0,0,3.2-3.2v-14a4.73,4.73,0,0,1,.77-2.58L479.92,23A3.6,3.6,0,0,0,478.78,18"/><path class="cls-1" d="M134.27,19.33c-3.37-2.3-7.09-3-13.36-3H108.46A1.67,1.67,0,0,0,106.79,18v1.95a1.58,1.58,0,0,0,1.58,1.58H120.5c4.68,0,12.88,0,12.88,9.06,0,8.83-8.41,8.83-12.88,8.83h-3.85a9.86,9.86,0,0,0-9.86,9.85V62a2,2,0,0,0,2,2h2.5a2,2,0,0,0,2-2V50.45a5.84,5.84,0,0,1,5.84-5.85h.7c5.3,0,20,0,20-14.09a13.34,13.34,0,0,0-5.58-11.18"/><path class="cls-2" d="M171.76,27.37c-10.47,0-20,6.89-20,18.8s9.44,18.74,20,18.74,20-7,20-18.74-9.43-18.8-20-18.8m0,32.58C166,60,158,56.57,158,46.17s8-13.78,13.84-13.78,13.77,3.38,13.77,13.78S177.69,60,171.76,60"/><path class="cls-1" d="M222.19,28.53A12.86,12.86,0,0,0,212.85,32l-.1.05a.5.5,0,0,1-.81-.17V30.32a2,2,0,0,0-2-2H207.8a2,2,0,0,0-2,2V62a2,2,0,0,0,2,2H210a2,2,0,0,0,2-2V46.77c0-7.28,3.67-12.84,11.22-13.26a2,2,0,0,0,1.86-2v-.29a2.82,2.82,0,0,0-2.83-2.71"/><path class="cls-1" d="M262.45,28.34H254.1a2,2,0,0,1-2-2V20.11a2,2,0,0,0-2-2H248a2,2,0,0,0-2,2v5a3.25,3.25,0,0,1-3.24,3.25,2,2,0,0,0-2,2v1a2,2,0,0,0,2,2A3.25,3.25,0,0,1,246,36.6V53.67c0,5.32.28,11.24,11.5,11.24a44.66,44.66,0,0,0,4.6-.22,2,2,0,0,0,1.81-2v-1a2,2,0,0,0-2.18-2c-1.67.15-2.68.18-3.33.18-6.27,0-6.27-3-6.27-6.28V35.34a2,2,0,0,1,2-2h8.35a2,2,0,0,0,2-2v-1a2,2,0,0,0-2-2"/><path class="cls-1" d="M337,57.23V40.91c0-3.63-.21-6.47-2.75-9.07-4.41-4.47-11.85-4.47-13.64-4.47a29.43,29.43,0,0,0-11.83,2.34,2,2,0,0,0-1.18,2l.12,1.14a2,2,0,0,0,2.78,1.61,24.94,24.94,0,0,1,10-2.1c5.17,0,10.19,1.69,10.19,5.8,0,2.9-2,3.09-7.78,3.69-7,.72-19.35,2-19.35,12.63,0,5.5,4,10.4,12.81,10.4A21.36,21.36,0,0,0,328.5,61.5a2,2,0,0,1,2.94,1.11.19.19,0,0,0,0,.07,2,2,0,0,0,1.86,1.26h2.27a2,2,0,0,0,1.93-2.46,15.58,15.58,0,0,1-.49-4.25m-6.38-4.3c-1.2,5.4-9.18,7.14-13.8,7.14s-7.16-2.29-7.16-5.74c0-4.37,4-6.12,7.7-6.9a32.85,32.85,0,0,1,7.26-1c3.57.09,6.87,2.61,6,6.55"/><path class="cls-1" d="M286.8,29.54h-2.29a2,2,0,0,0-2,2V62a2,2,0,0,0,2,2h2.29a2,2,0,0,0,2-2V31.53a2,2,0,0,0-2-2"/><path class="cls-1" d="M285.77,17.57a4.13,4.13,0,1,0,4.13,4.13,4.13,4.13,0,0,0-4.13-4.13"/><path class="cls-2" d="M387.37,19.68h0c-3.3-2.25-6.91-3.08-13.32-3.08H362.36a2.94,2.94,0,0,0-2.94,2.94V60.85a3.24,3.24,0,0,0,3.24,3.23H365a3.24,3.24,0,0,0,3.24-3.23V53.94h.06v-4.2a4.51,4.51,0,0,1,4.44-3.83H373c5,0,20.18,0,20.18-14.59a14,14,0,0,0-5.83-11.64M373.66,38.29l-3.62.05a1.71,1.71,0,0,1-1.74-1.71V26.08a1.86,1.86,0,0,1,1.86-1.86h3.5c5.66,0,10.73.55,10.73,7.15,0,6.39-5.3,6.92-10.73,6.92"/><path class="cls-2" d="M434.41,52.59H418a3.17,3.17,0,0,1-3.17-3.18v-.58A3.17,3.17,0,0,1,418,45.66h16.44Z"/><path class="cls-1" d="M219.79,93.16a13.5,13.5,0,0,0,3.14-7.11,1.58,1.58,0,0,1,1.74-1.31l.26,0a.24.24,0,0,1,.21.25,18.92,18.92,0,0,1-2.81,8.64,1.63,1.63,0,0,1-2.43.29l-.09-.07a.51.51,0,0,1,0-.72m15.53-12.94a3.43,3.43,0,0,1-.57-3,2.89,2.89,0,0,1,1.45-1.87,3.39,3.39,0,0,1,5.11,2.9,3.32,3.32,0,0,1-2.43,3.2v.87h-8.19a.16.16,0,0,0-.16.16V94.88a1.68,1.68,0,0,1-1.68,1.68.52.52,0,0,1-.53-.53V82.43a.17.17,0,0,0-.17-.16h-7.92A.25.25,0,0,1,220,82v-.35a1.47,1.47,0,0,1,1.46-1.46h6.71a.17.17,0,0,0,.17-.16v-2.4a1.46,1.46,0,0,1,1.45-1.46h.54a.22.22,0,0,1,.22.22v3.64a.16.16,0,0,0,.16.16Zm.52,4.55c.7,4,1.68,6.4,3.53,8.69a.21.21,0,0,1,0,.3L239,94a1.63,1.63,0,0,1-2.39-.4A19.73,19.73,0,0,1,234,86.13a1.27,1.27,0,0,1,1.1-1.49l.47-.06a.23.23,0,0,1,.26.19m.58-5.48a1.29,1.29,0,0,0,.45.45,1.89,1.89,0,0,0,2.95-1.54A1.85,1.85,0,0,0,238,76.35a1.89,1.89,0,0,0-1.55,2.94"/><path class="cls-1" d="M265,85.35h0a2.1,2.1,0,0,1-2.1,2.09H248.19a.13.13,0,0,1-.13-.14v0a2.09,2.09,0,0,1,2.09-2.1h14.64a.2.2,0,0,1,.19.2"/><path class="cls-1" d="M276.78,86.07a25.7,25.7,0,0,0-4.8-1.88.37.37,0,0,1-.23-.5,1.91,1.91,0,0,1,2.29-1,24.69,24.69,0,0,1,5.07,2.18.3.3,0,0,1,.14.38,1.81,1.81,0,0,1-2.47.86m-2,7.19c7.51-1.14,11.37-4.34,14.05-11.65a1.28,1.28,0,0,1,2-.6l.1.07a.44.44,0,0,1,.15.51c-3.36,9.59-7.76,12.82-17.45,14.23a.37.37,0,0,1-.41-.29,1.92,1.92,0,0,1,1.57-2.27m4.1-12.73a30.45,30.45,0,0,0-5.21-2,.24.24,0,0,1-.15-.34A2.09,2.09,0,0,1,276,77.12a28,28,0,0,1,5.25,2.13.07.07,0,0,1,0,.1l-.16.36a1.67,1.67,0,0,1-2.24.82"/><path class="cls-1" d="M304.71,96.77h0a.36.36,0,0,1-.39-.3l-1.5-9.72a.52.52,0,0,0-.6-.43l-4,.59a.31.31,0,0,1-.36-.27,1.58,1.58,0,0,1,1.34-1.78l2.7-.4a.53.53,0,0,0,.45-.6L302,81.79a1.41,1.41,0,0,1,1.25-1.63l.37,0a.14.14,0,0,1,.16.12l.52,3.34a.53.53,0,0,0,.6.44l8.32-1.21a.73.73,0,0,1,.82.82,11,11,0,0,1-3.53,7.07,1.86,1.86,0,0,1-2.55,0,.33.33,0,0,1,.05-.52,8.63,8.63,0,0,0,3.64-4.71.41.41,0,0,0-.44-.53l-6,.91a.53.53,0,0,0-.44.61l1.35,8.44a1.63,1.63,0,0,1-1.44,1.88"/><path class="cls-2" d="M321,88.58a.61.61,0,0,1,0-.79c1.29-1.59,4.57-5.71,5.33-6.6A3.56,3.56,0,0,1,329,79.57c1.18,0,2.19.7,3.3,1.83l10.23,10.37a.52.52,0,0,1,0,.71,1.93,1.93,0,0,1-2.86.06l-9.17-9.7A2.51,2.51,0,0,0,329,82a1.8,1.8,0,0,0-1.16.7c-.62.73-1.46,1.86-4.35,5.85a1.56,1.56,0,0,1-2.42.12ZM342.38,79a3.48,3.48,0,0,1-5,3.11,3.23,3.23,0,0,1-1.66-1.73A3.48,3.48,0,1,1,342.38,79m-5.38.5a1.89,1.89,0,0,0,1.19,1.34A2,2,0,1,0,337,79.52"/><path class="cls-2" d="M351.33,89.31h-.26a1.63,1.63,0,0,1-1.63-1.63v-.11a.51.51,0,0,1,.51-.51h1.38c1.89,0,5.06-3,7.61-5.45,2.85-2.72,5.31-5.07,7.36-5.07h.89a.46.46,0,0,1,.46.46v.52a1.26,1.26,0,0,1-1.26,1.27h-.09c-1.15,0-3.73,2.46-5.81,4.45-3.13,3-6.37,6.07-9.16,6.07"/><path class="cls-2" d="M358.42,82.45h2.37V96a.49.49,0,0,1-.49.49h-.61a1.27,1.27,0,0,1-1.27-1.27Z"/></g></g></svg>